P2
# Standard Driven Cavity (255 = white = fluid cell)
25 25
255
255 255 255 255 255 255 255 255 255 255 255 255 255 255 255 255 255 255 255 255 255 255 255 255 255
255 255 255 255 255 255 255 255 255 255 255 255 0 255 255 255 0 255 255 255 255 255 255 255 255
255 255 255 255 0 255 255 255 255 255 0 255 255 255 255 255 255 255 255 255 255 255 255 255 255
255 255 255 255 255 255 255 255 255 255 255 255 255 255 255 255 0 0 0 0 255 255 255 255 255
255 255 255 255 255 255 255 255 255 255 255 255 255 255 255 255 0 0 0 0 0 0 0 255 255
255 255 255 255 255 255 255 0 255 255 255 255 255 255 255 255 0 0 0 255 255 255 255 255 255
255 255 255 255 255 255 255 0 255 255 255 255 255 255 255 255 255 255 0 255 255 255 255 255 255
255 255 255 255 255 255 255 0 255 255 255 255 255 255 255 255 255 255 0 255 255 255 255 255 255
255 255 255 255 255 255 255 0 255 255 255 0 255 255 255 255 255 255 255 255 255 255 255 255 255
255 255 255 255 255 255 255 0 255 255 255 255 255 255 255 255 255 255 255 255 255 255 255 255 255
255 255 255 255 255 255 255 255 255 255 255 255 255 255 255 255 255 255 255 255 255 255 255 255 255
255 255 255 255 255 255 255 255 255 255 255 255 255 255 255 255 255 255 255 255 255 255 255 255 255
255 255 255 255 255 255 255 255 255 0 255 255 255 255 255 255 255 255 255 255 255 255 255 255 255
255 255 255 255 255 255 255 0 255 255 0 255 255 255 255 255 255 255 255 255 255 255 255 255 255
255 255 255 255 255 255 255 255 255 255 255 255 255 255 255 255 255 255 255 255 255 255 255 255 255
255 255 255 0 255 255 255 255 255 255 255 255 255 255 255 255 255 255 255 255 255 255 255 255 255
255 255 255 0 255 255 255 255 0 255 255 255 255 255 255 255 255 0 0 0 255 255 255 255 255
255 255 255 0 255 255 255 255 255 255 255 255 255 255 255 255 255 0 0 0 255 255 255 255 255
255 255 255 0 255 255 255 255 255 255 255 255 255 255 255 255 255 0 0 0 255 255 255 255 255
255 255 255 255 255 255 255 255 255 255 255 255 255 255 255 255 255 255 255 255 255 255 255 255 255
255 255 255 255 255 255 255 255 255 255 255 255 255 255 255 255 255 255 255 255 255 255 255 255 255
255 255 255 255 255 255 255 255 255 255 255 255 255 255 255 255 255 255 255 255 255 255 255 255 255
255 255 255 255 255 255 255 255 255 255 255 255 255 255 255 255 255 255 255 255 255 255 255 255 255
255 255 255 255 255 255 255 255 255 255 255 255 255 255 255 255 255 255 255 255 255 255 255 255 255
255 255 255 255 255 255 255 255 255 255 255 255 255 255 255 255 255 255 255 255 255 255 255 255 255